<svg xmlns="http://www.w3.org/2000/svg" xmlns:xlink="http://www.w3.org/1999/xlink" width="2000" zoomAndPan="magnify" viewBox="0 0 1500 1499.999933" height="2000" preserveAspectRatio="xMidYMid meet" version="1.0"><path fill="#000000" d="M 1254.660156 730.125 C 1256.523438 724.535156 1258.386719 718.632812 1260.25 713.042969 C 1260.558594 715.839844 1260.871094 718.324219 1261.492188 721.117188 C 1265.839844 742.546875 1271.117188 763.976562 1274.84375 785.714844 C 1281.054688 822.359375 1282.296875 831.675781 1270.808594 850.929688 C 1277.019531 868.011719 1285.714844 884.160156 1298.445312 899.378906 C 1307.765625 890.992188 1316.148438 881.367188 1322.359375 869.875 C 1319.253906 868.324219 1317.390625 869.566406 1316.148438 870.808594 C 1313.355469 872.980469 1310.871094 875.15625 1308.074219 877.019531 C 1312.734375 870.1875 1317.082031 863.355469 1321.738281 856.210938 C 1325.777344 850.308594 1331.675781 844.097656 1328.882812 837.265625 C 1323.914062 825.464844 1330.433594 820.808594 1337.886719 814.597656 C 1346.582031 807.765625 1354.96875 800.929688 1364.597656 795.652344 C 1372.980469 790.992188 1380.125 785.09375 1383.851562 776.398438 C 1389.128906 763.976562 1398.445312 757.453125 1411.179688 753.726562 C 1425.464844 749.6875 1435.402344 739.128906 1443.789062 727.328125 C 1433.539062 729.8125 1427.949219 741.613281 1417.390625 742.546875 C 1397.824219 744.410156 1383.851562 754.039062 1371.738281 768.632812 C 1370.1875 770.496094 1367.703125 772.050781 1365.527344 773.292969 C 1362.734375 775.15625 1359.9375 778.570312 1356.210938 776.707031 C 1352.171875 774.84375 1354.035156 770.496094 1353.726562 767.390625 C 1353.414062 743.476562 1359.628906 720.1875 1363.355469 696.894531 C 1365.21875 684.160156 1367.390625 671.738281 1378.261719 662.734375 C 1380.746094 660.558594 1383.539062 656.832031 1380.746094 652.171875 C 1376.085938 653.414062 1372.980469 663.042969 1366.769531 654.347656 C 1364.597656 651.550781 1362.113281 654.347656 1360.871094 656.832031 C 1359.007812 661.179688 1357.140625 665.839844 1355.898438 670.496094 C 1345.03125 705.28125 1336.957031 740.992188 1332.296875 777.328125 C 1331.054688 786.335938 1326.707031 792.546875 1319.875 798.136719 C 1313.355469 803.417969 1310.871094 800.929688 1309.007812 794.410156 C 1304.035156 775.777344 1302.792969 757.144531 1308.695312 738.507812 C 1316.148438 716.460938 1323.914062 694.410156 1331.988281 672.671875 C 1345.03125 636.644531 1368.011719 603.726562 1370.1875 563.664062 C 1370.496094 556.832031 1376.398438 552.171875 1381.054688 547.515625 C 1398.445312 531.367188 1417.390625 516.769531 1437.578125 504.039062 C 1450.308594 496.273438 1457.761719 485.714844 1459.628906 471.429688 C 1461.800781 453.726562 1470.808594 440.371094 1485.09375 430.125 C 1491.613281 425.464844 1497.203125 419.253906 1500 407.453125 C 1488.820312 417.703125 1481.054688 426.707031 1471.117188 432.917969 C 1460.871094 439.128906 1453.726562 448.445312 1450.621094 459.628906 C 1440.683594 493.476562 1409.9375 504.039062 1384.160156 520.496094 C 1390.683594 493.476562 1395.03125 466.460938 1409.316406 442.855469 C 1415.527344 432.296875 1420.808594 421.117188 1423.601562 409.007812 C 1426.398438 396.894531 1425.464844 391.304688 1419.566406 384.472656 C 1417.390625 412.113281 1400.621094 433.230469 1387.886719 459.316406 C 1383.851562 447.515625 1391.304688 438.199219 1386.023438 427.640625 C 1380.125 439.128906 1376.707031 449.378906 1376.707031 460.558594 C 1377.019531 489.441406 1368.011719 515.839844 1357.453125 541.925781 C 1354.035156 550.3125 1349.6875 553.105469 1341.925781 547.203125 C 1338.199219 544.71875 1334.160156 542.546875 1332.296875 538.507812 C 1329.191406 531.988281 1323.601562 530.746094 1317.082031 530.433594 C 1306.519531 530.125 1296.273438 529.191406 1288.199219 516.148438 C 1286.957031 529.191406 1293.167969 535.402344 1300.621094 536.023438 C 1317.390625 537.578125 1325.15625 549.378906 1333.539062 561.179688 C 1341.304688 571.738281 1342.546875 581.988281 1337.265625 594.410156 C 1322.359375 628.570312 1308.695312 663.355469 1294.097656 697.824219 C 1291.613281 703.726562 1290.371094 711.179688 1283.851562 716.148438 C 1276.707031 704.039062 1274.84375 691.613281 1273.914062 678.882812 C 1276.707031 673.292969 1280.125 667.703125 1283.851562 662.113281 C 1284.160156 661.800781 1283.539062 660.558594 1283.539062 659.628906 C 1282.296875 659.9375 1281.054688 659.628906 1280.433594 660.25 C 1277.328125 663.664062 1275.15625 665.21875 1273.292969 665.527344 C 1272.980469 663.042969 1272.980469 660.558594 1272.671875 658.074219 C 1271.738281 659.9375 1270.808594 661.800781 1270.1875 663.664062 C 1268.945312 662.113281 1268.324219 659.316406 1267.390625 655.902344 C 1264.90625 645.339844 1265.21875 635.402344 1267.703125 625.15625 C 1269.566406 617.082031 1271.429688 608.386719 1266.460938 596.894531 C 1264.285156 607.765625 1263.042969 615.527344 1261.179688 623.292969 C 1259.628906 630.125 1259.316406 640.0625 1245.03125 630.433594 C 1251.242188 645.339844 1259.316406 655.589844 1259.007812 668.945312 C 1258.695312 681.675781 1257.453125 694.097656 1253.726562 705.902344 C 1254.039062 707.144531 1254.039062 708.386719 1254.039062 709.628906 C 1254.039062 716.769531 1254.347656 723.601562 1254.660156 730.125 Z M 1254.660156 730.125 " fill-opacity="1" fill-rule="nonzero"/><path fill="#000000" d="M 1012.421875 259.9375 C 1021.738281 275.777344 1027.640625 292.855469 1033.539062 310.25 C 1036.644531 319.253906 1041.613281 326.085938 1048.136719 332.917969 C 1056.523438 341.304688 1067.082031 348.136719 1075.15625 357.144531 C 1068.632812 363.976562 1059.9375 368.945312 1052.175781 374.222656 C 1044.71875 357.453125 1031.054688 345.652344 1018.324219 333.539062 C 1012.421875 327.949219 1007.453125 322.980469 1007.144531 314.597656 C 1007.144531 310.558594 1005.589844 307.765625 1001.242188 306.523438 C 989.128906 302.484375 977.328125 297.515625 963.976562 300.621094 C 951.242188 303.726562 939.75 300.933594 928.570312 294.097656 C 907.453125 281.675781 885.714844 271.117188 860.871094 267.390625 C 854.347656 266.460938 846.894531 267.703125 838.507812 263.355469 C 842.855469 262.421875 844.71875 261.492188 846.894531 261.492188 C 851.242188 261.179688 855.589844 261.179688 859.9375 261.492188 C 877.949219 263.042969 877.949219 263.042969 873.601562 246.582031 C 873.601562 246.273438 874.535156 245.652344 875.777344 244.410156 C 883.539062 259.9375 897.203125 267.703125 912.113281 273.914062 C 926.085938 279.8125 926.085938 280.433594 930.433594 265.839844 C 931.988281 281.054688 941.925781 288.507812 954.347656 285.402344 C 968.632812 281.675781 981.675781 284.78125 995.03125 287.578125 C 1004.660156 289.441406 1004.96875 285.402344 1001.554688 278.570312 C 989.441406 253.105469 970.808594 235.714844 942.546875 229.191406 C 934.160156 227.328125 925.464844 224.84375 917.390625 222.359375 C 909.9375 219.875 902.796875 216.148438 899.378906 209.007812 C 895.03125 200 890.371094 191.304688 882.609375 185.402344 C 884.160156 184.160156 885.402344 182.917969 886.957031 181.675781 C 893.167969 184.472656 897.828125 189.441406 900.621094 196.273438 C 906.832031 210.871094 918.011719 217.082031 931.988281 217.390625 C 952.796875 218.011719 970.496094 225.464844 987.578125 236.957031 C 997.824219 243.167969 1006.210938 250 1012.421875 259.9375 Z M 1012.421875 259.9375 " fill-opacity="1" fill-rule="nonzero"/><path fill="#000000" d="M 790.371094 128.261719 C 793.789062 127.949219 796.894531 126.707031 800 125.464844 C 803.105469 124.222656 807.453125 123.292969 805.902344 116.769531 C 797.824219 119.875 790.0625 123.292969 779.8125 121.117188 C 788.507812 107.765625 790.371094 90.0625 809.007812 86.023438 C 812.734375 85.09375 816.460938 81.367188 815.21875 75.777344 C 799.066406 83.230469 783.230469 90.0625 777.019531 108.695312 C 775.15625 114.285156 769.566406 118.011719 763.976562 120.1875 C 758.074219 122.359375 754.347656 131.988281 748.445312 127.640625 C 743.167969 123.601562 747.824219 115.21875 747.515625 108.386719 C 747.515625 107.765625 746.582031 107.453125 745.960938 106.523438 C 741.925781 110.871094 741.925781 116.769531 740.683594 122.359375 C 739.441406 128.882812 738.820312 135.402344 734.78125 140.683594 C 728.261719 149.378906 721.117188 157.765625 716.460938 167.082031 C 722.359375 171.429688 727.949219 175.15625 734.472656 177.949219 C 743.167969 151.242188 758.386719 130.746094 790.371094 128.261719 Z M 790.371094 128.261719 " fill-opacity="1" fill-rule="nonzero"/><path fill="#000000" d="M 797.824219 189.75 C 783.851562 204.039062 774.535156 220.496094 766.460938 238.507812 C 765.21875 241.304688 763.664062 243.789062 762.113281 246.273438 C 760.871094 248.136719 760.25 250.929688 757.453125 250.929688 C 754.660156 250.929688 754.347656 247.824219 753.726562 245.652344 C 750 229.191406 754.039062 213.042969 754.660156 196.582031 C 754.660156 194.71875 756.832031 192.546875 758.695312 190.992188 C 772.671875 179.503906 768.324219 160.558594 777.328125 147.203125 C 770.496094 152.796875 766.148438 159.628906 763.976562 167.703125 C 762.734375 171.738281 761.800781 176.398438 758.386719 179.191406 C 745.652344 188.507812 740.683594 200.929688 742.546875 216.148438 C 742.855469 217.703125 742.234375 219.253906 741.925781 221.117188 C 740.992188 225.777344 739.441406 227.949219 734.78125 224.222656 C 731.367188 221.429688 727.640625 218.632812 724.222656 215.839844 C 726.085938 208.695312 727.949219 201.554688 729.8125 194.410156 C 731.367188 187.886719 733.539062 181.675781 735.402344 175.15625 C 728.882812 172.050781 723.601562 168.945312 717.703125 163.976562 C 713.664062 170.1875 711.179688 180.433594 707.453125 189.441406 C 705.28125 194.410156 703.105469 195.960938 700 194.71875 C 696.582031 190.683594 693.167969 186.644531 690.371094 181.988281 C 679.8125 164.597656 666.769531 147.203125 671.738281 124.535156 C 672.359375 122.359375 672.671875 118.945312 667.390625 118.945312 C 671.429688 128.261719 656.210938 130.125 661.492188 139.441406 C 659.9375 139.75 658.695312 139.128906 657.453125 138.507812 C 656.523438 131.988281 657.144531 125.464844 659.9375 118.324219 C 661.800781 113.355469 666.148438 108.386719 662.421875 102.175781 C 658.695312 103.726562 658.386719 107.144531 657.144531 109.628906 C 655.28125 113.355469 653.417969 117.703125 649.378906 118.011719 C 644.097656 118.632812 643.789062 113.042969 641.925781 109.9375 C 638.820312 104.96875 636.644531 98.757812 629.8125 97.203125 C 628.570312 100.621094 630.746094 101.863281 631.675781 104.039062 C 638.199219 119.253906 647.828125 133.539062 649.378906 150.933594 C 649.691406 154.347656 651.554688 159.007812 645.34375 158.695312 C 637.265625 158.386719 627.949219 159.9375 622.050781 154.96875 C 605.589844 141.925781 586.023438 132.296875 572.671875 115.527344 C 566.460938 107.765625 559.9375 100 546.273438 97.203125 C 552.796875 103.417969 557.453125 107.144531 561.492188 111.800781 C 566.148438 116.769531 573.292969 122.980469 559.007812 124.535156 C 560.558594 128.570312 563.664062 129.191406 566.148438 129.8125 C 583.851562 134.78125 595.964844 146.582031 604.96875 161.492188 C 609.9375 169.875 616.148438 173.914062 626.085938 174.222656 C 664.597656 174.84375 695.03125 214.285156 694.410156 246.894531 C 694.097656 255.902344 693.476562 265.21875 693.476562 274.222656 L 688.507812 317.703125 C 703.417969 316.769531 712.421875 323.914062 718.324219 336.644531 C 718.632812 337.578125 719.253906 338.199219 719.566406 339.128906 C 731.675781 335.714844 740.0625 324.84375 751.242188 321.117188 C 749.378906 318.945312 747.207031 316.769531 744.410156 313.976562 C 722.671875 290.371094 714.90625 262.421875 721.117188 231.054688 C 721.117188 230.433594 721.429688 230.125 721.429688 229.503906 C 729.191406 236.335938 736.644531 243.789062 741.304688 253.417969 C 752.175781 275.777344 760.558594 299.066406 770.496094 321.738281 C 770.496094 321.738281 770.496094 321.738281 770.496094 322.050781 C 776.707031 322.359375 781.054688 315.21875 785.402344 306.832031 C 784.78125 305.589844 784.160156 304.347656 783.230469 303.105469 C 777.949219 294.097656 774.222656 284.160156 769.566406 274.535156 C 768.011719 271.429688 768.011719 268.632812 769.875 266.148438 C 779.191406 250.308594 784.472656 231.988281 793.789062 216.769531 C 797.828125 210.25 801.554688 203.417969 805.28125 196.582031 C 806.210938 191.304688 806.832031 185.714844 807.765625 180.125 C 808.074219 179.191406 808.074219 178.261719 808.074219 177.019531 C 804.96875 181.367188 801.863281 185.714844 797.824219 189.75 Z M 659.628906 146.273438 C 660.558594 146.894531 661.492188 147.515625 662.113281 147.824219 C 667.082031 150.933594 670.1875 155.589844 669.875 160.871094 C 669.566406 163.355469 669.566406 165.527344 670.1875 167.703125 C 665.839844 161.179688 661.800781 154.039062 659.628906 146.273438 Z M 659.628906 146.273438 " fill-opacity="1" fill-rule="nonzero"/><path fill="#000000" d="M 549.066406 345.339844 C 530.746094 376.398438 499.066406 383.851562 468.945312 393.167969 C 454.96875 397.515625 440.371094 400 426.707031 404.96875 C 422.980469 406.210938 418.324219 406.832031 416.148438 413.355469 C 421.117188 412.113281 424.84375 411.492188 428.570312 410.558594 C 442.234375 407.453125 455.589844 404.347656 469.566406 403.105469 C 477.328125 402.484375 480.433594 404.347656 478.261719 413.042969 C 473.601562 431.054688 466.460938 445.652344 445.960938 449.6875 C 436.957031 451.554688 428.570312 455.589844 419.875 458.386719 C 408.386719 462.113281 397.824219 468.324219 390.0625 477.328125 C 379.503906 489.75 371.117188 503.726562 354.347656 509.316406 C 369.875 510.25 381.675781 502.796875 390.371094 491.613281 C 404.96875 472.671875 426.398438 469.566406 448.757812 461.800781 C 439.128906 483.230469 432.609375 503.417969 409.628906 510.871094 C 402.484375 513.042969 397.203125 518.945312 395.03125 528.882812 C 406.523438 523.292969 413.664062 513.664062 425.464844 513.976562 C 427.640625 520.496094 423.292969 527.328125 429.191406 535.402344 C 441.304688 481.367188 474.222656 445.960938 519.875 421.117188 C 525.15625 435.402344 513.042969 444.097656 509.628906 455.589844 C 513.355469 453.726562 516.769531 451.554688 520.1875 449.6875 C 523.601562 454.660156 520.496094 461.492188 526.707031 464.597656 C 529.191406 461.179688 527.640625 458.074219 527.949219 454.96875 C 530.125 436.644531 527.019531 416.148438 537.265625 400.308594 C 553.105469 375.15625 570.496094 351.554688 592.546875 331.675781 C 590.371094 323.601562 587.265625 316.148438 582.917969 309.316406 C 570.496094 320.1875 557.765625 330.746094 549.066406 345.339844 Z M 549.066406 345.339844 " fill-opacity="1" fill-rule="nonzero"/><path fill="#000000" d="M 755.902344 368.324219 C 728.261719 378.882812 692.855469 370.808594 672.980469 349.378906 C 665.21875 340.992188 657.144531 332.609375 649.6875 323.914062 C 637.265625 309.316406 618.324219 307.453125 603.417969 297.824219 C 612.734375 313.355469 632.296875 315.527344 643.167969 331.988281 C 634.78125 330.433594 628.261719 328.882812 621.429688 327.949219 C 614.90625 327.019531 608.386719 326.707031 601.863281 326.707031 C 595.339844 326.707031 588.820312 326.707031 582.296875 331.988281 C 584.472656 332.917969 585.09375 333.230469 585.714844 333.230469 C 588.820312 333.539062 591.925781 333.230469 595.03125 333.539062 C 624.222656 336.957031 653.105469 340.683594 669.566406 370.1875 C 673.601562 377.328125 681.054688 381.367188 688.507812 384.472656 C 693.476562 386.644531 695.652344 388.199219 690.683594 393.167969 C 678.570312 405.589844 667.082031 418.324219 655.28125 430.746094 C 650.621094 436.023438 644.71875 439.441406 637.886719 441.304688 C 622.050781 445.652344 613.664062 459.9375 596.582031 469.566406 C 612.113281 464.90625 608.074219 471.117188 605.589844 476.085938 C 603.105469 480.746094 601.242188 486.335938 597.824219 490.0625 C 576.398438 514.285156 558.074219 531.367188 526.707031 521.117188 C 523.292969 519.875 519.566406 518.632812 515.527344 520.808594 C 517.082031 522.050781 517.703125 522.980469 518.632812 523.292969 C 530.433594 527.949219 530.433594 527.949219 521.429688 536.335938 C 519.875 537.886719 516.460938 539.128906 519.253906 543.476562 C 528.882812 538.507812 537.578125 531.054688 549.378906 531.054688 C 565.527344 531.367188 565.527344 531.054688 577.328125 522.671875 C 577.949219 522.359375 578.882812 522.671875 579.8125 522.671875 C 580.746094 535.09375 580.746094 547.203125 573.601562 558.386719 C 578.570312 559.9375 579.503906 557.144531 580.433594 555.28125 C 585.714844 546.582031 590.371094 548.136719 594.097656 556.210938 C 596.582031 561.179688 598.445312 566.148438 601.550781 574.222656 C 604.660156 561.492188 600 554.039062 594.71875 547.203125 C 586.335938 536.023438 586.023438 523.914062 593.789062 513.042969 C 605.902344 496.273438 619.253906 480.433594 631.988281 464.285156 C 633.230469 462.734375 635.09375 461.492188 636.644531 461.179688 C 647.515625 459.628906 654.039062 452.175781 660.871094 445.03125 C 669.566406 435.714844 679.191406 427.640625 689.75 420.808594 C 725.777344 396.894531 767.703125 390.683594 808.074219 379.503906 C 813.664062 377.949219 814.597656 380.433594 814.597656 385.402344 C 814.597656 395.960938 814.90625 406.832031 815.527344 417.390625 C 815.839844 422.359375 814.285156 426.085938 810.558594 429.503906 C 791.925781 447.824219 771.738281 463.355469 743.789062 462.421875 C 736.644531 462.113281 730.125 464.285156 725.777344 470.496094 C 719.875 479.191406 711.492188 480.746094 701.550781 479.503906 C 696.273438 478.882812 690.683594 476.707031 684.160156 482.296875 C 693.789062 483.539062 701.550781 484.472656 709.316406 485.402344 C 717.082031 486.335938 723.601562 484.78125 729.191406 479.191406 C 739.75 468.632812 752.484375 470.808594 766.769531 471.738281 C 759.9375 482.609375 751.550781 490.992188 751.863281 502.484375 C 752.171875 516.769531 746.273438 527.328125 734.78125 535.402344 C 733.230469 536.335938 731.988281 537.886719 732.296875 540.371094 C 735.714844 542.234375 737.886719 539.441406 740.371094 538.507812 C 743.476562 537.265625 745.960938 532.609375 749.378906 535.09375 C 752.796875 537.578125 751.242188 542.234375 750.621094 545.960938 C 746.894531 565.21875 743.167969 584.472656 729.503906 599.6875 C 726.085938 603.417969 722.980469 608.074219 724.222656 616.769531 C 726.707031 613.042969 727.328125 611.800781 728.261719 610.25 C 732.296875 603.726562 736.957031 595.339844 744.410156 595.652344 C 750.621094 595.960938 749.6875 606.210938 752.484375 611.800781 C 752.484375 612.113281 753.105469 612.113281 754.347656 612.734375 C 756.210938 607.765625 756.210938 602.484375 753.726562 598.445312 C 747.824219 588.199219 751.550781 579.503906 755.589844 570.1875 C 758.695312 563.042969 760.871094 561.800781 766.148438 568.324219 C 775.777344 580.125 786.023438 591.613281 790.992188 606.523438 C 794.71875 592.234375 787.578125 580.746094 778.882812 572.359375 C 760.871094 554.96875 760.871094 533.851562 760.871094 511.800781 C 760.871094 505.28125 763.042969 499.6875 766.769531 494.71875 C 774.84375 483.851562 783.851562 474.222656 795.03125 466.460938 C 806.832031 458.695312 818.324219 450.621094 830.125 442.546875 C 837.578125 437.265625 840.371094 430.433594 837.886719 421.738281 C 832.296875 402.796875 840.371094 385.714844 845.652344 368.011719 C 846.273438 365.21875 848.445312 363.355469 851.242188 362.421875 C 857.144531 360.25 863.042969 358.386719 869.253906 356.210938 C 863.042969 346.582031 856.523438 337.265625 850 327.640625 C 819.253906 342.234375 787.886719 355.902344 755.902344 368.324219 Z M 755.902344 368.324219 " fill-opacity="1" fill-rule="nonzero"/><path fill="#000000" d="M 1249.6875 927.949219 C 1227.019531 909.628906 1209.316406 888.199219 1198.445312 861.492188 C 1191.925781 845.03125 1181.367188 838.199219 1164.597656 840.371094 C 1152.175781 842.234375 1146.582031 836.335938 1143.476562 825.15625 C 1137.265625 804.96875 1131.367188 784.78125 1129.191406 763.664062 C 1124.222656 762.734375 1119.875 761.179688 1114.90625 759.316406 C 1089.75 759.628906 1065.839844 762.734375 1047.515625 749.378906 C 1033.230469 739.128906 1022.671875 721.429688 1020.496094 701.863281 C 1019.875 695.652344 1019.253906 689.128906 1020.496094 682.917969 C 1026.085938 650.3125 1014.285156 621.117188 1004.96875 590.992188 C 1004.039062 587.886719 1002.175781 585.09375 999.066406 583.851562 C 990.371094 580.125 988.820312 572.671875 990.0625 564.90625 C 992.855469 549.691406 996.894531 534.78125 1005.902344 521.738281 C 1008.386719 518.011719 1012.734375 514.597656 1008.386719 508.386719 C 1002.175781 512.421875 1002.484375 525.464844 990.683594 521.429688 C 990.0625 524.222656 989.128906 527.019531 989.128906 529.503906 C 989.75 537.578125 987.265625 544.410156 982.917969 551.554688 C 977.949219 545.03125 980.125 536.644531 976.085938 529.503906 C 972.359375 532.296875 973.601562 536.023438 973.601562 539.128906 C 973.601562 554.660156 978.882812 568.945312 983.230469 583.230469 C 984.160156 586.023438 986.335938 589.75 984.160156 592.234375 C 981.367188 595.339844 977.640625 592.546875 974.222656 591.613281 C 962.113281 588.820312 953.105469 579.191406 940.371094 577.640625 C 952.484375 592.855469 968.324219 602.796875 985.714844 609.316406 C 993.476562 612.421875 996.582031 617.082031 999.066406 624.222656 C 1006.210938 644.097656 1004.039062 663.976562 1000.621094 684.160156 C 996.894531 706.832031 996.582031 707.453125 975.464844 696.894531 C 961.800781 689.75 948.445312 681.367188 935.09375 673.601562 C 928.261719 669.566406 925.15625 662.421875 921.117188 655.902344 C 918.324219 651.554688 916.460938 645.652344 909.007812 644.71875 C 908.695312 651.863281 914.285156 656.210938 915.839844 662.113281 C 916.769531 665.527344 920.1875 668.945312 917.703125 672.050781 C 914.597656 675.777344 910.25 672.671875 906.523438 672.050781 C 904.96875 671.738281 903.417969 671.117188 902.175781 670.496094 C 900.621094 669.875 898.757812 669.253906 898.136719 671.117188 C 897.824219 672.359375 898.445312 674.535156 899.378906 675.15625 C 901.242188 676.707031 903.417969 677.640625 905.589844 678.882812 C 908.695312 681.054688 914.597656 680.433594 914.90625 685.402344 C 914.90625 690.683594 909.628906 693.167969 905.28125 695.03125 C 901.242188 696.582031 897.203125 697.824219 892.546875 699.378906 C 901.863281 704.039062 908.386719 703.726562 918.011719 694.71875 C 927.640625 685.714844 935.714844 686.957031 945.03125 694.097656 C 959.007812 704.660156 974.84375 712.421875 991.304688 718.945312 C 1004.347656 723.914062 1012.734375 733.539062 1018.324219 745.960938 C 1021.429688 752.484375 1020.1875 755.902344 1014.285156 759.628906 C 989.441406 775.464844 965.21875 792.234375 935.714844 799.070312 C 931.367188 800 926.085938 800.3125 922.980469 805.589844 C 933.539062 808.695312 943.789062 804.660156 956.210938 804.96875 C 942.546875 822.671875 928.570312 838.820312 922.980469 859.9375 C 930.433594 860.871094 930.433594 853.417969 936.023438 852.175781 C 934.78125 865.21875 922.671875 877.640625 935.402344 892.855469 C 935.09375 871.117188 949.378906 854.347656 946.894531 834.160156 C 946.273438 830.125 949.691406 826.707031 952.175781 823.914062 C 961.800781 813.355469 971.738281 803.105469 983.851562 795.03125 C 1010.25 777.949219 1037.265625 768.945312 1068.011719 784.160156 C 1075.464844 787.886719 1084.160156 788.820312 1092.234375 790.371094 C 1100.621094 791.613281 1104.96875 795.964844 1106.832031 803.726562 C 1109.9375 815.527344 1113.042969 827.640625 1116.769531 839.441406 C 1118.945312 846.585938 1116.460938 850.3125 1110.25 853.726562 C 1086.335938 867.390625 1061.800781 877.640625 1033.851562 878.882812 C 1028.261719 879.191406 1022.050781 878.261719 1015.527344 882.609375 C 1022.980469 886.644531 1030.433594 887.578125 1037.578125 887.886719 C 1045.34375 887.886719 1045.34375 890.992188 1042.234375 896.894531 C 1033.230469 913.042969 1019.253906 924.222656 1005.589844 936.644531 C 1005.589844 938.820312 1006.523438 940.992188 1007.144531 942.855469 C 1008.695312 940.992188 1011.492188 938.820312 1015.527344 936.023438 C 1031.367188 925.777344 1044.722656 912.734375 1056.210938 897.828125 C 1059.9375 893.167969 1064.597656 889.128906 1070.1875 887.265625 C 1084.78125 882.296875 1099.691406 877.640625 1114.285156 872.050781 C 1123.292969 868.632812 1130.125 870.808594 1136.644531 877.640625 C 1143.480469 884.78125 1150.933594 891.304688 1158.386719 898.136719 C 1176.398438 914.285156 1194.410156 930.746094 1210.558594 948.757812 C 1215.527344 954.039062 1218.324219 958.386719 1219.253906 962.734375 C 1238.199219 959.007812 1256.210938 949.378906 1272.671875 937.265625 C 1264.90625 937.265625 1257.453125 934.160156 1249.6875 927.949219 Z M 1249.6875 927.949219 " fill-opacity="1" fill-rule="nonzero"/><path fill="#000000" d="M 1182.609375 662.734375 C 1180.125 665.527344 1177.640625 668.324219 1175.15625 671.117188 C 1170.1875 676.707031 1165.527344 682.296875 1159.316406 687.886719 C 1158.695312 675.777344 1158.074219 664.90625 1163.042969 654.660156 C 1164.597656 650.929688 1166.460938 647.515625 1164.597656 642.234375 C 1162.734375 647.203125 1160.871094 650.929688 1158.074219 654.347656 C 1154.96875 658.386719 1153.105469 663.042969 1152.175781 668.324219 C 1150.621094 677.640625 1150.621094 686.957031 1150 696.273438 C 1149.6875 699.378906 1149.378906 702.792969 1147.515625 705.589844 C 1143.476562 711.492188 1139.75 717.703125 1135.714844 723.292969 C 1128.882812 732.917969 1128.570312 732.917969 1119.875 725.464844 C 1119.253906 725.15625 1118.945312 724.535156 1118.324219 724.222656 C 1112.421875 720.808594 1111.179688 716.460938 1113.664062 709.9375 C 1117.703125 698.445312 1118.324219 686.644531 1114.285156 675.464844 C 1108.386719 680.433594 1109.007812 671.429688 1105.28125 671.429688 C 1104.347656 674.222656 1106.210938 676.085938 1107.765625 677.949219 C 1111.800781 683.851562 1114.597656 689.75 1111.179688 696.894531 C 1109.316406 700.621094 1107.765625 704.347656 1106.210938 708.074219 C 1104.96875 711.179688 1103.417969 711.492188 1100.933594 709.316406 C 1095.960938 704.96875 1090.683594 700.929688 1085.714844 696.582031 C 1077.949219 689.75 1069.253906 683.539062 1068.945312 671.738281 C 1068.945312 670.808594 1068.324219 670.1875 1068.011719 669.253906 C 1065.527344 664.285156 1062.113281 661.492188 1057.453125 660.871094 C 1062.734375 665.839844 1067.082031 670.808594 1066.460938 678.261719 C 1063.976562 678.261719 1063.042969 674.222656 1059.628906 675.15625 C 1062.734375 682.609375 1069.566406 686.957031 1074.535156 694.097656 C 1066.460938 690.683594 1058.695312 690.683594 1051.242188 685.402344 C 1054.347656 691.304688 1053.726562 692.546875 1048.757812 692.855469 C 1046.582031 693.167969 1044.71875 692.855469 1042.546875 692.855469 C 1040.0625 693.167969 1037.265625 693.167969 1034.472656 695.339844 C 1041.613281 695.339844 1047.515625 695.652344 1053.726562 695.652344 C 1053.726562 695.652344 1053.726562 695.960938 1053.726562 695.960938 C 1054.660156 695.652344 1055.589844 695.652344 1056.523438 695.339844 C 1057.765625 693.167969 1059.628906 693.476562 1063.976562 694.71875 C 1078.570312 699.378906 1090.683594 706.832031 1099.6875 719.253906 C 1103.105469 723.914062 1107.765625 727.328125 1111.492188 733.230469 C 1120.808594 740.0625 1119.253906 749.066406 1113.976562 758.695312 C 1113.355469 759.9375 1112.734375 760.871094 1112.113281 762.113281 C 1118.011719 762.734375 1123.914062 763.976562 1129.8125 764.90625 C 1133.851562 753.105469 1139.128906 741.613281 1147.824219 731.675781 C 1151.242188 727.949219 1154.039062 723.601562 1155.902344 718.945312 C 1160.25 709.007812 1165.839844 700 1171.738281 690.992188 C 1175.464844 685.09375 1180.433594 681.367188 1187.578125 680.433594 C 1192.234375 679.8125 1196.894531 678.261719 1200.929688 675.777344 C 1204.660156 673.292969 1207.765625 669.253906 1213.355469 670.1875 C 1209.316406 666.148438 1205.589844 667.082031 1202.171875 669.566406 C 1196.582031 673.601562 1189.441406 672.359375 1183.851562 675.15625 C 1183.851562 675.15625 1183.539062 674.84375 1183.230469 674.535156 C 1186.335938 669.253906 1190.0625 664.597656 1196.273438 662.734375 C 1197.515625 662.421875 1199.378906 662.113281 1199.378906 660.558594 C 1199.378906 659.007812 1197.824219 658.695312 1196.273438 658.386719 C 1190.992188 658.074219 1186.335938 658.695312 1182.609375 662.734375 Z M 1182.609375 662.734375 " fill-opacity="1" fill-rule="nonzero"/><path fill="#000000" d="M 551.554688 348.136719 C 552.175781 348.445312 552.796875 348.445312 553.417969 347.824219 C 562.421875 342.546875 572.050781 338.199219 580.746094 334.160156 C 581.675781 333.851562 581.988281 332.917969 581.988281 331.988281 C 582.296875 324.84375 582.609375 317.390625 582.917969 309.628906 C 582.917969 308.695312 582.609375 308.074219 581.988281 307.453125 C 560.871094 290.371094 540.0625 271.429688 519.566406 253.417969 C 491.925781 229.503906 466.460938 203.726562 444.410156 174.222656 C 444.410156 174.222656 444.410156 174.222656 444.097656 174.222656 C 437.578125 168.945312 432.917969 161.800781 427.640625 154.96875 C 426.398438 153.105469 425.464844 151.863281 425.464844 150.621094 C 425.464844 150.3125 425.15625 149.6875 424.84375 149.378906 C 422.050781 145.652344 419.253906 141.925781 416.769531 138.199219 C 416.460938 137.886719 416.148438 137.886719 415.839844 137.578125 C 409.007812 132.296875 400.929688 129.503906 392.855469 127.640625 C 382.917969 125.464844 374.535156 120.808594 367.703125 112.734375 C 360.871094 104.347656 352.484375 97.515625 342.234375 93.167969 C 337.578125 91.304688 333.851562 88.199219 330.433594 84.78125 C 328.570312 82.917969 325.15625 85.09375 326.398438 87.578125 C 328.261719 91.304688 331.367188 94.410156 335.09375 97.203125 C 340.992188 101.554688 346.894531 105.902344 352.484375 110.25 C 354.660156 112.113281 358.386719 113.976562 357.144531 117.390625 C 356.210938 120.808594 352.175781 120.496094 349.378906 120.496094 C 346.894531 120.808594 344.097656 120.496094 341.304688 121.429688 C 338.820312 122.050781 338.820312 125.464844 341.304688 126.085938 C 359.628906 131.675781 377.949219 136.023438 396.273438 144.097656 C 398.445312 145.03125 398.136719 148.445312 395.652344 148.757812 C 378.261719 151.863281 360.558594 151.863281 345.339844 160.558594 C 342.855469 162.113281 344.410156 165.839844 347.203125 165.21875 C 347.203125 165.21875 347.203125 165.21875 347.515625 165.21875 C 350 164.597656 351.863281 167.703125 350 169.566406 C 337.578125 181.367188 333.230469 199.378906 319.875 209.628906 C 317.703125 211.492188 319.566406 214.90625 322.050781 213.976562 C 327.328125 212.113281 331.675781 209.007812 335.402344 204.039062 C 338.507812 199.6875 341.613281 195.339844 344.410156 190.683594 C 357.453125 167.703125 379.8125 161.800781 404.039062 159.316406 C 408.386719 159.007812 410.25 161.179688 412.421875 163.976562 C 436.644531 193.167969 462.113281 221.429688 485.402344 251.554688 C 494.410156 263.355469 499.066406 278.261719 512.421875 286.957031 C 516.460938 289.75 514.285156 292.855469 511.179688 295.339844 C 493.789062 309.9375 476.707031 325.15625 451.242188 321.738281 C 443.167969 320.808594 436.335938 324.84375 429.503906 328.570312 C 420.1875 333.851562 415.839844 330.433594 413.042969 320.808594 C 410.871094 312.421875 412.113281 304.96875 415.839844 297.515625 C 418.632812 291.613281 422.050781 286.023438 419.253906 278.882812 C 413.042969 293.476562 398.757812 305.589844 404.039062 324.222656 C 406.210938 332.296875 402.484375 334.472656 395.03125 336.644531 C 382.609375 340.0625 372.050781 337.886719 361.179688 331.675781 C 338.199219 318.945312 313.355469 309.316406 294.097656 290.992188 C 293.167969 290.0625 291.925781 289.128906 290.371094 288.507812 C 284.160156 286.023438 276.085938 280.746094 271.429688 285.714844 C 267.703125 289.75 278.261719 292.855469 280.746094 297.824219 C 281.367188 298.757812 281.675781 299.6875 282.917969 301.863281 C 228.570312 310.25 177.019531 309.628906 134.472656 264.90625 C 134.472656 273.292969 138.199219 275.777344 141.304688 278.570312 C 148.757812 285.714844 143.789062 287.886719 137.265625 289.441406 C 135.09375 290.0625 132.917969 290.0625 130.125 290.371094 C 127.640625 290.683594 127.019531 294.097656 129.503906 295.03125 C 132.609375 296.273438 136.023438 295.960938 138.507812 295.339844 C 152.796875 291.613281 163.976562 297.203125 175.464844 304.039062 C 179.191406 306.210938 183.230469 307.765625 186.644531 310.25 C 190.0625 312.734375 197.203125 313.042969 195.960938 318.632812 C 195.03125 322.359375 188.820312 322.359375 184.78125 322.671875 C 166.460938 324.535156 148.136719 326.707031 129.8125 323.292969 C 126.707031 322.671875 123.292969 322.671875 119.875 322.980469 C 117.390625 323.292969 116.769531 326.707031 119.253906 327.640625 C 129.503906 331.675781 139.75 334.472656 150.933594 335.09375 C 160.558594 335.714844 170.1875 334.160156 180.125 334.160156 C 192.234375 334.472656 203.726562 330.746094 213.976562 324.84375 C 230.433594 315.21875 249.378906 317.703125 267.390625 316.460938 C 298.445312 313.976562 323.914062 327.019531 348.445312 345.339844 C 350 346.582031 349.691406 348.757812 347.824219 349.691406 C 342.546875 351.863281 337.578125 351.863281 332.609375 351.554688 C 321.429688 350.933594 312.734375 354.96875 307.144531 363.976562 C 284.78125 399.070312 251.554688 400 216.460938 393.167969 C 195.960938 389.128906 178.570312 379.503906 161.492188 366.460938 C 147.203125 355.28125 127.640625 349.066406 108.695312 345.652344 C 105.902344 345.03125 103.105469 345.339844 100.3125 346.273438 C 97.824219 347.203125 98.136719 350.933594 100.933594 351.242188 C 122.980469 352.796875 138.820312 364.90625 154.347656 378.882812 C 172.359375 395.03125 194.71875 404.039062 217.082031 411.800781 C 221.738281 413.355469 226.707031 414.597656 231.367188 416.148438 C 236.335938 417.703125 236.335938 419.875 233.539062 424.535156 C 212.734375 457.765625 181.054688 469.253906 144.097656 467.390625 C 122.671875 466.460938 102.796875 469.875 83.539062 477.640625 C 72.980469 481.675781 62.734375 481.988281 52.484375 476.707031 C 46.273438 473.601562 39.75 472.050781 30.746094 476.085938 C 41.925781 478.570312 55.902344 481.988281 55.589844 488.507812 C 55.28125 496.582031 40.992188 494.410156 33.230469 497.515625 C 31.675781 498.136719 30.125 498.757812 28.570312 499.378906 C 26.085938 500.3125 27.019531 504.347656 29.8125 504.039062 C 57.765625 502.175781 81.054688 485.402344 108.074219 482.296875 C 109.9375 481.988281 111.179688 483.851562 110.871094 485.402344 C 109.007812 490.992188 105.902344 495.960938 104.347656 501.863281 C 103.726562 504.347656 106.832031 505.902344 108.695312 504.039062 C 112.421875 500.3125 114.597656 495.652344 117.390625 491.613281 C 123.292969 482.917969 138.199219 477.949219 147.824219 480.433594 C 152.796875 481.988281 151.554688 484.472656 149.691406 487.265625 C 130.433594 514.90625 111.800781 543.476562 85.714844 565.527344 C 75.15625 574.535156 61.800781 577.328125 49.691406 583.230469 C 34.472656 590.371094 18.632812 596.894531 2.484375 603.726562 C 0 604.660156 0.621094 608.074219 3.105469 608.386719 C 5.902344 608.695312 9.007812 607.765625 12.113281 606.832031 C 17.390625 604.96875 22.671875 602.175781 27.949219 600 C 33.230469 597.824219 38.820312 595.960938 40.683594 601.554688 C 41.304688 603.417969 43.789062 604.039062 45.03125 602.175781 C 51.863281 591.925781 62.734375 588.507812 73.601562 585.09375 C 82.296875 582.609375 83.851562 585.714844 82.296875 593.167969 C 79.8125 605.28125 79.8125 618.324219 73.914062 629.503906 C 72.671875 631.988281 76.085938 634.472656 77.949219 632.296875 C 81.988281 628.261719 84.78125 622.980469 85.714844 617.390625 C 90.683594 586.644531 109.316406 562.113281 131.054688 538.820312 C 144.410156 524.535156 155.902344 508.695312 168.011719 493.167969 C 172.980469 486.957031 178.261719 483.851562 186.644531 485.09375 C 194.097656 486.335938 197.203125 490.371094 196.273438 496.894531 C 193.476562 517.082031 193.789062 538.507812 180.433594 556.210938 C 175.777344 562.421875 171.429688 568.632812 164.597656 572.671875 C 162.113281 574.222656 159.316406 575.777344 157.453125 578.261719 C 156.210938 579.8125 157.144531 582.296875 159.316406 582.296875 C 161.800781 582.609375 164.285156 581.054688 166.148438 580.125 C 174.84375 576.398438 177.949219 578.570312 176.707031 588.199219 C 175.777344 595.03125 172.980469 600.3125 168.324219 605.28125 C 162.113281 611.492188 156.210938 618.324219 153.726562 627.019531 C 152.796875 629.8125 152.484375 632.917969 154.039062 636.023438 C 154.96875 637.886719 157.765625 637.886719 158.695312 636.023438 C 161.800781 629.8125 162.113281 622.359375 167.703125 617.390625 C 172.980469 613.042969 175.15625 610.871094 178.570312 619.566406 C 184.160156 634.78125 191.304688 649.066406 188.507812 666.148438 C 187.578125 671.738281 189.441406 677.640625 194.410156 681.675781 C 200.3125 686.335938 202.175781 692.546875 203.105469 701.242188 C 209.007812 695.652344 206.832031 690.683594 204.660156 686.957031 C 198.136719 673.914062 193.167969 660.871094 200 646.273438 C 201.242188 643.789062 199.691406 640.992188 197.824219 638.820312 C 183.539062 621.117188 186.957031 601.554688 191.304688 581.988281 C 193.476562 572.050781 197.203125 562.734375 203.105469 554.347656 C 214.285156 538.507812 218.324219 520.1875 221.429688 501.554688 C 226.398438 470.496094 240.683594 445.960938 268.011719 428.570312 C 310.871094 401.554688 353.726562 375.464844 405.589844 370.1875 C 423.601562 368.324219 441.613281 367.082031 459.316406 372.050781 C 470.496094 375.15625 481.367188 373.914062 490.683594 365.839844 C 494.097656 362.734375 498.136719 360.558594 502.175781 358.074219 C 518.011719 347.824219 533.539062 342.234375 551.554688 348.136719 Z M 551.554688 348.136719 " fill-opacity="1" fill-rule="nonzero"/><path fill="#000000" d="M 959.628906 42.234375 C 964.597656 51.863281 967.390625 62.421875 974.84375 70.808594 C 993.476562 90.992188 1016.769531 104.96875 1039.75 119.875 C 1041.925781 121.429688 1044.097656 122.359375 1045.03125 118.324219 C 1046.894531 110.558594 1042.234375 98.757812 1035.09375 94.097656 C 1030.746094 91.304688 1025.464844 89.128906 1021.738281 83.539062 C 1030.125 82.917969 1035.714844 88.199219 1043.167969 89.128906 C 1040.371094 63.976562 1022.359375 43.789062 1022.671875 17.390625 C 1026.398438 20.496094 1027.019531 23.914062 1028.261719 27.019531 C 1031.054688 33.230469 1029.8125 44.71875 1036.335938 44.71875 C 1041.304688 44.71875 1043.789062 33.539062 1045.652344 24.535156 C 1049.378906 31.675781 1048.136719 36.957031 1045.960938 41.925781 C 1042.234375 50.308594 1042.546875 58.386719 1046.273438 67.082031 C 1052.796875 82.609375 1056.523438 98.445312 1056.210938 115.527344 C 1055.902344 145.339844 1065.839844 170.496094 1093.167969 186.023438 C 1096.894531 188.199219 1098.757812 188.199219 1099.6875 184.160156 C 1100.929688 180.433594 1101.550781 176.398438 1102.796875 172.671875 C 1108.386719 154.347656 1114.90625 136.023438 1127.328125 121.117188 C 1139.441406 106.832031 1149.378906 91.925781 1147.824219 71.117188 C 1152.171875 74.84375 1153.105469 79.191406 1152.484375 83.230469 C 1150.308594 98.445312 1145.960938 114.285156 1137.265625 126.398438 C 1127.328125 140.683594 1120.1875 154.96875 1117.390625 171.429688 C 1112.734375 200 1114.597656 226.707031 1143.476562 243.476562 C 1150.929688 247.824219 1154.347656 254.660156 1154.347656 263.664062 C 1154.347656 268.632812 1154.660156 273.601562 1158.074219 278.570312 C 1172.980469 257.453125 1183.851562 236.023438 1180.746094 209.9375 C 1179.191406 195.652344 1180.433594 180.433594 1172.671875 167.703125 C 1167.390625 159.316406 1163.976562 150.933594 1163.976562 140.992188 C 1163.976562 132.917969 1162.113281 125.15625 1162.421875 117.082031 C 1162.734375 105.902344 1165.839844 95.652344 1169.875 85.09375 C 1171.117188 90.0625 1172.050781 95.03125 1171.429688 99.691406 C 1169.253906 114.597656 1171.429688 129.191406 1173.601562 143.789062 C 1173.914062 146.894531 1174.222656 152.175781 1177.328125 152.796875 C 1181.675781 153.417969 1181.675781 147.824219 1183.539062 145.03125 C 1185.402344 142.234375 1186.644531 138.820312 1188.199219 136.023438 C 1193.476562 126.707031 1197.824219 117.390625 1194.097656 106.210938 C 1193.167969 102.796875 1192.855469 98.445312 1197.515625 94.097656 C 1198.136719 98.445312 1198.136719 101.554688 1199.066406 104.660156 C 1200.3125 109.9375 1202.175781 113.976562 1207.765625 107.765625 C 1209.9375 105.589844 1211.800781 102.175781 1218.632812 101.863281 C 1183.851562 137.265625 1184.78125 178.570312 1193.167969 222.050781 C 1195.03125 221.117188 1195.652344 220.496094 1196.582031 220.1875 C 1200.3125 218.011719 1202.796875 209.628906 1205.902344 212.421875 C 1209.9375 215.839844 1205.589844 222.671875 1204.039062 227.949219 C 1203.726562 228.882812 1203.417969 229.8125 1202.796875 230.433594 C 1188.507812 246.582031 1181.367188 267.082031 1171.738281 286.023438 C 1167.082031 295.03125 1165.839844 303.417969 1168.945312 313.355469 C 1170.808594 319.253906 1172.671875 322.359375 1179.191406 320.1875 C 1194.097656 315.527344 1204.039062 326.707031 1215.839844 331.054688 C 1210.25 333.539062 1205.589844 330.746094 1200.929688 328.882812 C 1194.71875 326.398438 1188.820312 325.464844 1181.988281 327.328125 C 1174.535156 329.8125 1171.738281 333.539062 1176.398438 340.683594 C 1179.503906 345.960938 1182.917969 351.554688 1182.609375 357.765625 C 1180.746094 378.261719 1193.476562 391.613281 1205.589844 405.28125 C 1207.765625 407.453125 1210.25 409.316406 1212.421875 405.902344 C 1218.945312 395.03125 1231.054688 390.683594 1240.0625 383.230469 C 1263.664062 363.664062 1285.714844 342.546875 1308.386719 322.050781 C 1310.558594 320.1875 1312.421875 318.632812 1311.800781 315.21875 C 1309.316406 295.960938 1304.039062 278.261719 1284.78125 268.324219 C 1281.054688 266.460938 1277.328125 263.976562 1273.601562 261.492188 C 1266.148438 256.210938 1263.042969 248.757812 1263.664062 239.441406 C 1270.1875 260.558594 1293.789062 260.558594 1305.589844 276.398438 C 1306.832031 269.875 1302.484375 266.460938 1302.171875 260.25 C 1317.703125 275.464844 1315.839844 295.03125 1321.117188 314.285156 C 1329.8125 295.960938 1332.609375 277.949219 1337.886719 259.628906 C 1341.304688 263.976562 1340.992188 267.390625 1341.304688 270.808594 C 1341.613281 273.292969 1341.304688 276.398438 1344.097656 277.019531 C 1346.894531 277.640625 1348.445312 274.84375 1349.6875 272.980469 C 1353.105469 268.324219 1356.210938 263.355469 1359.628906 258.695312 C 1363.042969 253.726562 1367.390625 249.691406 1374.222656 249.691406 C 1369.875 254.347656 1365.527344 258.695312 1363.042969 264.285156 C 1359.628906 272.359375 1354.660156 279.503906 1348.136719 285.09375 C 1341.613281 290.683594 1338.199219 297.515625 1336.644531 305.589844 C 1335.402344 312.421875 1333.539062 318.632812 1329.503906 324.535156 C 1329.191406 324.84375 1329.191406 324.84375 1329.191406 325.15625 C 1326.085938 327.328125 1322.980469 329.8125 1320.1875 332.296875 C 1318.945312 332.296875 1317.703125 332.917969 1316.148438 334.160156 C 1310.871094 338.507812 1305.28125 342.546875 1301.242188 347.824219 C 1278.261719 366.148438 1258.386719 387.578125 1239.75 410.558594 C 1225.777344 427.949219 1210.871094 445.339844 1197.515625 463.042969 C 1182.917969 463.042969 1169.875 463.355469 1155.902344 460.871094 C 1157.144531 456.210938 1159.007812 451.554688 1161.492188 446.894531 C 1170.808594 428.570312 1165.839844 413.976562 1155.589844 399.066406 C 1153.417969 395.960938 1151.554688 392.855469 1149.066406 390.0625 C 1142.234375 382.917969 1140.992188 374.222656 1143.167969 365.21875 C 1146.582031 350.621094 1145.03125 336.335938 1143.167969 322.050781 C 1137.265625 280.433594 1115.21875 246.894531 1092.234375 213.355469 C 1077.640625 191.925781 1057.453125 181.054688 1032.296875 177.949219 C 1016.769531 176.085938 1001.863281 173.292969 988.507812 164.285156 C 981.988281 159.9375 974.535156 157.453125 967.082031 156.210938 C 951.242188 153.417969 935.09375 150.933594 921.429688 163.042969 C 919.875 164.597656 917.703125 165.839844 915.527344 164.90625 C 903.726562 159.9375 893.476562 163.976562 883.230469 169.875 C 880.125 171.429688 876.398438 173.601562 871.738281 168.945312 C 878.570312 168.011719 883.539062 166.148438 887.265625 161.179688 C 890.371094 157.144531 895.03125 155.28125 899.691406 155.902344 C 913.355469 157.765625 924.84375 151.554688 936.644531 146.582031 C 943.476562 143.789062 941.613281 141.925781 938.199219 137.886719 C 933.539062 132.609375 925.777344 133.539062 920.1875 129.503906 C 923.292969 126.085938 927.019531 126.085938 930.125 127.019531 C 937.265625 128.882812 942.855469 133.230469 948.136719 138.199219 C 952.175781 141.925781 956.523438 144.097656 962.113281 144.410156 C 969.875 145.03125 971.738281 142.546875 968.324219 135.714844 C 967.390625 133.539062 965.21875 131.054688 967.082031 127.640625 C 970.496094 128.882812 972.359375 131.675781 974.222656 134.472656 C 977.640625 139.75 982.609375 143.167969 987.886719 146.582031 C 1002.484375 156.832031 1019.566406 155.902344 1036.023438 157.453125 C 1041.304688 158.074219 1044.410156 155.28125 1045.03125 149.378906 C 1045.652344 142.546875 1043.167969 138.199219 1037.886719 134.472656 C 1025.15625 125.15625 1012.113281 116.148438 1000.3125 105.902344 C 981.054688 89.128906 960.558594 74.84375 934.160156 71.429688 C 925.777344 70.1875 918.945312 64.597656 915.21875 55.902344 C 926.085938 66.769531 940.0625 65.527344 953.417969 67.703125 C 959.628906 68.632812 962.113281 67.390625 959.628906 60.25 C 955.902344 49.691406 952.484375 39.441406 939.128906 35.09375 C 950.929688 35.402344 949.066406 29.8125 946.582031 23.914062 C 944.71875 19.566406 942.234375 15.839844 940.683594 11.492188 C 939.128906 7.765625 937.886719 3.417969 941.304688 0 C 946.582031 15.21875 952.484375 28.882812 959.628906 42.234375 Z M 959.628906 42.234375 " fill-opacity="1" fill-rule="nonzero"/><path fill="#000000" d="M 1337.265625 1366.769531 C 1338.820312 1343.789062 1343.167969 1320.496094 1339.75 1297.515625 C 1336.644531 1275.464844 1333.851562 1272.359375 1329.503906 1249.6875 C 1316.769531 1181.675781 1339.128906 1160.25 1323.914062 1106.523438 C 1321.738281 1099.378906 1318.011719 1086.957031 1316.460938 1069.253906 C 1314.597656 1046.273438 1318.324219 1029.191406 1319.253906 1023.292969 C 1325.15625 990.683594 1315.21875 944.71875 1295.03125 852.484375 C 1289.441406 827.328125 1285.09375 802.175781 1279.191406 777.328125 C 1273.601562 753.105469 1272.980469 745.960938 1272.050781 739.128906 C 1266.460938 702.484375 1269.253906 696.273438 1264.90625 674.84375 C 1259.9375 650.308594 1254.96875 652.796875 1242.234375 614.90625 C 1233.230469 588.820312 1229.191406 568.632812 1223.601562 542.546875 C 1213.042969 492.546875 1217.082031 489.441406 1211.179688 470.1875 C 1197.515625 426.085938 1145.960938 386.335938 1145.960938 386.335938 C 1135.402344 378.261719 1100.3125 352.796875 1039.441406 335.714844 C 1012.421875 328.261719 1000.933594 327.949219 896.585938 319.253906 C 805.589844 311.492188 820.496094 304.96875 770.1875 309.007812 C 745.960938 310.871094 706.210938 316.148438 656.523438 316.769531 C 642.546875 317.082031 632.917969 316.769531 621.117188 315.21875 C 590.0625 311.492188 580.746094 303.726562 560.558594 301.863281 C 547.515625 300.929688 528.261719 302.171875 503.105469 315.21875 C 505.902344 316.148438 510.558594 317.390625 515.839844 319.566406 C 539.128906 329.503906 543.167969 341.304688 557.144531 343.476562 C 567.703125 345.03125 570.496094 338.820312 586.957031 334.472656 C 607.765625 328.882812 624.535156 336.023438 637.886719 335.714844 C 684.160156 335.402344 717.390625 338.199219 776.707031 342.855469 C 837.578125 347.824219 884.472656 354.96875 896.273438 356.832031 C 957.453125 366.460938 949.691406 368.945312 977.640625 370.808594 C 987.578125 371.429688 1032.917969 373.914062 1051.554688 384.160156 C 1053.105469 384.78125 1060.871094 389.441406 1072.671875 394.410156 C 1078.570312 396.894531 1082.917969 398.445312 1084.472656 399.066406 C 1118.945312 412.113281 1138.820312 434.78125 1138.820312 434.78125 C 1144.410156 441.304688 1156.523438 456.523438 1162.113281 479.191406 C 1165.21875 491.304688 1162.734375 490.992188 1165.21875 514.285156 C 1168.324219 541.925781 1174.535156 562.421875 1177.328125 573.292969 C 1179.503906 581.988281 1182.609375 591.613281 1188.199219 603.417969 C 1192.546875 612.734375 1197.824219 622.359375 1203.726562 639.75 C 1207.765625 651.242188 1211.179688 663.664062 1217.082031 693.476562 C 1221.738281 717.082031 1223.914062 729.8125 1226.398438 744.097656 C 1242.234375 831.367188 1252.796875 836.644531 1247.203125 863.042969 C 1240.992188 891.925781 1229.503906 899.6875 1223.914062 937.265625 C 1219.566406 967.703125 1225.777344 970.808594 1224.535156 1009.316406 C 1222.671875 1054.347656 1213.664062 1060.25 1208.074219 1113.355469 C 1203.417969 1157.453125 1209.628906 1154.039062 1205.28125 1198.136719 C 1198.757812 1267.390625 1189.128906 1265.527344 1185.402344 1311.179688 C 1182.609375 1344.71875 1193.167969 1377.640625 1194.410156 1411.179688 C 1195.652344 1444.71875 1184.472656 1482.917969 1153.726562 1496.582031 C 1222.671875 1499.378906 1291.613281 1500 1360.558594 1499.066406 C 1341.925781 1456.832031 1334.160156 1411.492188 1337.265625 1366.769531 Z M 1337.265625 1366.769531 " fill-opacity="1" fill-rule="nonzero"/><path fill="#000000" d="M 1109.9375 463.976562 C 1104.96875 462.113281 1100 460.25 1095.03125 458.386719 C 1096.894531 459.9375 1098.445312 461.800781 1100 463.664062 C 1112.734375 478.570312 1124.535156 494.097656 1137.886719 508.695312 C 1160.25 533.230469 1166.148438 539.128906 1185.714844 541.925781 C 1194.410156 555.589844 1200.621094 570.808594 1204.347656 587.886719 C 1193.167969 589.75 1181.988281 590.371094 1170.496094 588.507812 C 1171.117188 585.402344 1172.980469 585.09375 1174.535156 584.472656 C 1177.328125 583.851562 1180.433594 582.917969 1183.230469 582.296875 C 1175.777344 581.675781 1168.632812 581.054688 1161.179688 580.433594 C 1154.96875 579.8125 1147.203125 580.746094 1144.097656 574.84375 C 1138.820312 564.90625 1131.675781 566.769531 1123.292969 568.632812 C 1113.664062 570.808594 1104.347656 572.980469 1095.339844 577.019531 C 1087.578125 580.433594 1079.503906 581.988281 1071.117188 579.8125 C 1059.628906 576.707031 1049.6875 579.503906 1040.371094 586.335938 C 1029.503906 594.097656 1016.769531 595.339844 1004.039062 594.71875 C 1011.492188 588.820312 1022.671875 591.613281 1029.191406 584.472656 C 1040.992188 571.738281 1055.902344 567.390625 1072.359375 567.082031 C 1074.535156 567.082031 1077.019531 566.148438 1079.191406 565.21875 C 1081.988281 564.285156 1086.023438 563.976562 1086.957031 560.558594 C 1087.886719 556.523438 1083.851562 555.589844 1081.675781 553.726562 C 1065.21875 540.371094 1045.339844 531.988281 1027.019531 521.429688 C 1017.082031 515.839844 1007.144531 510.25 995.03125 513.042969 C 992.234375 513.664062 988.199219 513.355469 986.335938 509.007812 C 989.75 506.210938 998.136719 509.628906 995.652344 500.308594 C 994.71875 497.203125 998.445312 496.894531 1000.621094 497.515625 C 1004.660156 498.757812 1009.007812 500 1013.042969 501.550781 C 1043.476562 513.042969 1072.671875 527.019531 1100.621094 544.097656 C 1107.453125 548.445312 1114.285156 548.445312 1122.050781 546.894531 C 1129.503906 545.339844 1129.191406 542.234375 1125.464844 537.265625 C 1115.21875 523.601562 1102.796875 512.113281 1086.335938 506.210938 C 1066.769531 499.066406 1047.203125 492.546875 1027.640625 486.023438 C 995.03125 475.464844 959.628906 473.292969 930.433594 452.792969 C 925.464844 449.378906 918.945312 450.621094 913.355469 451.550781 C 892.546875 454.660156 871.738281 459.9375 851.863281 467.082031 C 839.441406 471.429688 827.949219 471.117188 817.082031 464.597656 C 803.417969 456.523438 789.441406 455.28125 774.222656 459.628906 C 767.390625 461.492188 759.9375 462.113281 750 457.453125 C 763.355469 455.28125 773.914062 454.96875 783.851562 451.242188 C 793.789062 447.515625 804.039062 447.824219 813.664062 451.550781 C 842.855469 463.355469 867.082031 447.515625 892.855469 438.820312 C 870.496094 428.570312 849.070312 416.769531 824.84375 413.355469 C 813.976562 411.800781 803.417969 409.316406 793.167969 404.660156 C 783.230469 400 779.8125 395.960938 778.261719 388.507812 C 798.757812 402.171875 822.980469 402.171875 847.828125 407.765625 C 841.613281 398.445312 831.054688 398.445312 826.707031 389.128906 C 838.199219 391.304688 847.207031 394.71875 854.96875 400.929688 C 874.84375 417.082031 898.449219 425.464844 922.359375 432.296875 C 930.125 434.472656 934.472656 432.917969 934.78125 424.222656 C 935.09375 420.1875 936.023438 416.460938 934.160156 412.734375 C 931.367188 406.832031 933.539062 402.171875 936.957031 397.515625 C 942.546875 390.0625 947.515625 382.296875 942.855469 369.566406 C 952.484375 375.777344 953.417969 383.539062 950 389.128906 C 941.925781 401.863281 945.652344 413.355469 949.378906 425.777344 C 952.484375 436.957031 958.695312 443.476562 970.496094 446.582031 C 1002.796875 454.96875 1034.472656 464.597656 1066.460938 473.292969 C 1072.050781 474.84375 1077.949219 477.949219 1085.09375 476.085938 C 1080.433594 464.597656 1072.671875 456.210938 1064.597656 448.757812 C 1059.007812 447.515625 1053.417969 446.894531 1047.515625 446.582031 C 1046.894531 446.582031 1046.582031 445.652344 1045.960938 445.03125 C 1046.894531 444.410156 1047.515625 443.167969 1048.136719 443.167969 C 1052.175781 442.855469 1054.660156 442.234375 1055.589844 440.992188 C 1054.039062 439.441406 1052.175781 437.886719 1050.621094 436.335938 C 1052.484375 436.644531 1054.347656 437.265625 1055.902344 437.578125 C 1055.28125 436.023438 1054.039062 433.851562 1052.175781 431.367188 C 1046.273438 423.914062 1039.128906 418.632812 1030.746094 414.597656 C 1023.914062 411.492188 1017.082031 408.074219 1011.800781 398.136719 C 1020.496094 402.792969 1026.707031 406.210938 1032.917969 409.007812 C 1038.820312 411.800781 1045.652344 417.082031 1046.894531 401.863281 C 1053.726562 414.285156 1056.523438 425.777344 1066.148438 432.917969 C 1075.15625 439.441406 1084.78125 445.652344 1095.03125 449.6875 C 1095.652344 450.621094 1096.582031 451.242188 1097.203125 451.863281 C 1101.242188 456.523438 1105.589844 460.25 1109.9375 463.976562 Z M 1109.9375 463.976562 " fill-opacity="1" fill-rule="nonzero"/></svg>